<svg viewBox="0 0 32 32" xmlns="http://www.w3.org/2000/svg"><g data-name="Layer 59"><path d="M20 16a7 7 0 1 1 7-7 7 7 0 0 1-7 7Zm0-12a5 5 0 1 0 5 5 5 5 0 0 0-5-5ZM6 20a1 1 0 0 1-1-1v-6a1 1 0 0 1 2 0v6a1 1 0 0 1-1 1Z" fill="#11bd7b" class="fill-000000"></path><path d="M9 17H3a1 1 0 0 1 0-2h6a1 1 0 0 1 0 2ZM25 30H15a5 5 0 0 1-5-5v-3a5 5 0 0 1 5-5h10a5 5 0 0 1 5 5v3a5 5 0 0 1-5 5ZM15 19a3 3 0 0 0-3 3v3a3 3 0 0 0 3 3h10a3 3 0 0 0 3-3v-3a3 3 0 0 0-3-3Z" fill="#11bd7b" class="fill-000000"></path><path d="M12 21.34 11.44 28c.74.83 2.37 1 3.56 1h10a5.79 5.79 0 0 0 3.77-1.33L28 23.5c-.29 1.67-3.45 1.81-8 1.81s-8-2.18-8-3.97Z" fill="#11bd7b" class="fill-000000"></path></g></svg>