<svg viewBox="0 0 32 32" xml:space="preserve" xmlns="http://www.w3.org/2000/svg" enable-background="new 0 0 32 32"><path d="M27 11a4.982 4.982 0 0 0-1.489-3.552C24.488 4.848 21.96 3 19 3h-4c-3.86 0-7 3.14-7 7H7c-1.654 0-3 1.346-3 3v8c0 1.654 1.346 3 3 3h1v2c0 1.654 1.346 3 3 3h2c1.654 0 3-1.346 3-3v-1.77c.12.01.247.014.38.014.466 0 1.013-.064 1.62-.225V26c0 1.654 1.346 3 3 3h2c1.654 0 3-1.346 3-3V13.97c.62-.834 1-1.854 1-2.97zm-2 0c0 1.654-1.346 3-3 3h-4c-1.654 0-3-1.346-3-3s1.346-3 3-3h4c1.654 0 3 1.346 3 3zM7 22c-.551 0-1-.449-1-1v-8c0-.551.449-1 1-1h1v10H7zm17 4c0 .551-.449 1-1 1h-2c-.551 0-1-.449-1-1v-2.825c.182-.106.366-.217.555-.343a1 1 0 0 0-1.11-1.664c-2.395 1.598-3.92.973-4.013.93-.007-.003-.015-.002-.022-.005-.056-.026-.12-.032-.18-.047-.07-.016-.138-.04-.208-.042-.008 0-.014-.004-.022-.004-.044 0-.082.02-.125.025-.08.01-.158.019-.233.047-.054.021-.099.056-.148.086-.06.035-.12.067-.172.115-.05.046-.083.103-.123.159-.03.042-.07.073-.093.12-.005.01-.004.021-.009.031-.027.06-.035.125-.051.19-.016.066-.038.13-.04.197 0 .01-.006.02-.006.03v3c0 .551-.449 1-1 1h-2c-.551 0-1-.449-1-1V10c0-2.757 2.243-5 5-5h4c1.12 0 2.149.376 2.982 1H18c-2.757 0-5 2.243-5 5s2.243 5 5 5h4c.712 0 1.386-.154 2-.424V26zm-2-16a1 1 0 1 1 2 0 1 1 0 0 1-2 0zm-4-1h2a1 1 0 0 1 0 2h-2a1 1 0 0 1 0-2z" fill="#11bd7b" class="fill-000000"></path></svg>