<svg data-name="Layer 1" viewBox="0 0 24 24" xmlns="http://www.w3.org/2000/svg"><path d="M19.5 19H17v-7.1a.067.067 0 0 0-.131-.02 3.001 3.001 0 0 1-3.03 2.116A3.114 3.114 0 0 1 11 10.83V10a7 7 0 0 0-7 7v1a4 4 0 0 0 4 4h3.579a.995.995 0 0 1-.579-.9V20h2v1.1a.995.995 0 0 1-.579.9h3.158a.995.995 0 0 1-.579-.9V20h2v1.1a.995.995 0 0 1-.579.9H19.5a1.5 1.5 0 0 0 0-3ZM13 4l-3 2V2.207a.5.5 0 0 1 .854-.353ZM15 4l3 2V2.207a.5.5 0 0 0-.854-.353Z" fill="#11bd7b" class="fill-000000"></path><path d="M17 4h-7v3a4 4 0 0 0 8 0V4Zm-4.75 3.5a.75.75 0 1 1 .75-.75.75.75 0 0 1-.75.75Zm3.75 0a.75.75 0 1 1 .75-.75.75.75 0 0 1-.75.75Z" fill="#11bd7b" class="fill-000000"></path></svg>