<svg viewBox="0 0 40 40" xmlns="http://www.w3.org/2000/svg"><path d="m18.69 22.32 1-3.67-1 2.18c-.18-.44-.35-.44-.87-.09a9.17 9.17 0 0 0-1 .79 4.38 4.38 0 0 0-1 1.31 1.5 1.5 0 0 1-.43.61 1.82 1.82 0 0 1-2.62-.26 1.7 1.7 0 0 1 .35-2.45 1.59 1.59 0 0 1 .78-.35 19.85 19.85 0 0 0 3.1-1.74c.17-.09 3-2.19 3-2.19l-2.27 1.22h-.53c-.69.09-1.57.18-1.74.44a1.44 1.44 0 0 1-.35.35 2.06 2.06 0 0 1-2.36-.47 1.63 1.63 0 0 1 .35-2.27 2 2 0 0 1 1.13-.35 14 14 0 0 0 3.5.08l.35-.08a5.45 5.45 0 0 0 3.49-2.54s.61-1.13 1.4-2.36.7-2.7-.09-3.23l-1.48-.92a3.13 3.13 0 0 0-2.8 0L8.29 12a3.1 3.1 0 0 0-1.39 2.45v11.18a2.82 2.82 0 0 0 1.39 2.28l10.4 5.76a3.13 3.13 0 0 0 2.8 0l10.22-5.85a2.82 2.82 0 0 0 1.39-2.27v-11.1a2.82 2.82 0 0 0-1.39-2.27 21 21 0 0 1-2-1c-1-.52-2.45.35-3.41 1.84l-1.66 2.79a3.5 3.5 0 0 0 .26 3.67s1.92 2.19 2.19 2.54a2.18 2.18 0 0 1 .43.78A1.78 1.78 0 0 1 26.2 25a2 2 0 0 1-2.36-1.31 2.59 2.59 0 0 1-.08-.78 1.87 1.87 0 0 0-.7-1.66c-.61-.7-1.84.61-2.19 1.83a21.34 21.34 0 0 0-.52 2.53.31.31 0 0 0 .09.18 2 2 0 0 1-.88 2.8 2.14 2.14 0 0 1-2.88-.88 2 2 0 0 1 .87-2.79 4.86 4.86 0 0 0 .7-1.31Z" fill="#11bd7b" class="fill-000000"></path></svg>