<svg viewBox="0 0 30 30" xml:space="preserve" xmlns="http://www.w3.org/2000/svg" enable-background="new 0 0 30 30"><path d="M28.798 12.303c-.261-1.377-.69-2.361-1.28-2.94l.117-5.122a.426.426 0 0 0-.417-.437c-.254-.023-.431.181-.436.417l-.106 4.63a1.89 1.89 0 0 0-.693-.086l.097-4.297a.572.572 0 0 0 .16-.393.577.577 0 0 0-1.154 0c0 .141.057.266.142.367l-.103 4.528c0 .016.007.03.008.046l-.005.003c-1.176.845-6.107 4.327-7.816 5.534-.298-2.3-1.713-9.281-7.963-9.941-.529-.044-3.292-.151-5.494 1.923C1.981 8.3 1.07 11.115 1.15 14.912c.011.23.318 5.659 3.682 7.404l.013.007c-1.228.616-2.675 2.016-3.033 2.365a.426.426 0 0 0-.075.513.42.42 0 0 0 .476.206c5.698-1.414 12.266.802 12.352.831a6.24 6.24 0 0 0 1.753.262c4.457 0 6.339-5.39 6.37-5.489.863-3.767 3-4.436 3.038-4.45 1.127-.171 1.969-.644 2.505-1.407.873-1.244.579-2.789.567-2.851zm-26.795 2.58c-.074-3.534.747-6.134 2.438-7.727 1.628-1.533 3.655-1.705 4.485-1.705.18 0 .304.008.355.013 6.026.636 7.078 8.038 7.233 9.593l-3.445 1.577a.404.404 0 0 0-.241.044l-.351.18a9.2 9.2 0 0 0 .173-2.325c.001-.016.003-.031.003-.048.001-.021-.008-.039-.01-.06a11.475 11.475 0 0 0-.616-3.124v-.002c-.201-.574-1.309-3.468-3.473-3.983-1.206-.287-2.482.207-3.789 1.471-1.834 1.771-2.149 5.212-1.513 7.696.451 1.756 1.336 2.935 2.429 3.234.165.045.354.075.565.075.64 0 1.483-.276 2.46-1.257 1.502-1.508 2.045-5.416.523-7.196-.719-.842-1.405-.87-1.859-.751-1.074.292-1.793 1.712-2.007 2.908-.183 1.024.004 1.82.513 2.182.194.139.632.314 1.039.101.249-.13.544-.444.536-1.198a.427.427 0 0 0-.427-.423H7.02a.427.427 0 0 0-.423.431c.003.347-.078.432-.077.432-.029.008-.114-.014-.15-.039-.174-.124-.3-.595-.167-1.336.195-1.094.806-2.075 1.391-2.234.307-.081.641.078.986.481 1.21 1.415.747 4.807-.478 6.039-.557.56-1.392 1.176-2.195.961-.778-.213-1.461-1.193-1.828-2.623-.561-2.189-.304-5.341 1.279-6.869C6.442 8.353 7.45 7.929 8.355 8.146c1.767.421 2.757 3.126 2.864 3.434l.001.001a10.6 10.6 0 0 1 .574 2.944c-.12 3-.903 5.151-2.332 6.389a4.672 4.672 0 0 1-2.547 1.104 4.325 4.325 0 0 1-1.673-.451c-2.945-1.527-3.237-6.645-3.239-6.684zm25.528-.22c-.396.564-1.047.919-1.983 1.064-.11.03-2.708.796-3.681 5.051-.084.249-2.124 6.076-7.045 4.647-.254-.088-5.786-1.962-11.275-1.149.968-.802 1.939-1.425 2.321-1.391.201.023.587.045 1.076-.005.059.002.114.009.174.009a4.18 4.18 0 0 0 1.65-.334c1.514-.645 2.656-2.182 3.401-4.573l4.971-2.275c.025-.012.037-.037.059-.053l.009.013s6.987-4.93 8.381-5.934c.018-.011.467-.257.958-.027.444.206 1.049.852 1.41 2.757.006.015.24 1.252-.426 2.2z" fill="#11bd7b" class="fill-000000"></path><path d="M26.062 11.558a.64.64 0 1 0 .002 1.278.64.64 0 0 0-.002-1.278z" fill="#11bd7b" class="fill-000000"></path></svg>