<svg viewBox="0 0 512 512" xml:space="preserve" xmlns="http://www.w3.org/2000/svg" enable-background="new 0 0 512 512"><path d="M250.895 391.347h28.514s8.615-.952 13.004-5.709c4.059-4.364 3.904-12.563 3.904-12.563s-.563-38.366 17.213-44.022c17.508-5.562 39.994 37.091 63.824 53.506 18.014 12.406 31.707 9.688 31.707 9.688l63.736-.899s33.342-2.062 17.535-28.349c-1.279-2.148-9.215-19.437-47.391-54.968-39.967-37.204-34.604-31.164 13.537-95.492 29.32-39.175 41.045-63.101 37.373-73.329-3.49-9.749-25.049-7.175-25.049-7.175l-71.705.421s-5.311-.721-9.273 1.643c-3.854 2.33-6.328 7.716-6.328 7.716s-11.361 30.321-26.512 56.108c-31.945 54.394-44.736 57.267-49.959 53.884-12.141-7.862-9.094-31.642-9.094-48.508 0-52.726 7.965-74.704-15.539-80.385-7.818-1.885-13.541-3.142-33.492-3.348-25.594-.272-47.277.088-59.531 6.097-8.174 4.009-14.47 12.953-10.622 13.459 4.743.629 15.479 2.9 21.178 10.679 7.369 10.017 7.098 32.569 7.098 32.569s4.232 62.048-9.875 69.77c-9.695 5.292-22.962-5.509-51.448-54.883-14.583-25.267-25.618-53.233-25.618-53.233s-2.117-5.197-5.905-7.98c-4.594-3.381-11.039-4.453-11.039-4.453l-68.175.413s-10.234.305-13.992 4.754c-3.338 3.984-.268 12.176-.268 12.176S72.09 274.148 132.522 337.276c55.443 57.87 118.373 54.071 118.373 54.071zm0 0" fill="#11bd7b" class="fill-1f8eef"></path></svg>